<svg xmlns="http://www.w3.org/2000/svg" viewBox="0 0 500 500"><defs><style>.cls-1{fill:#9d9e9e;}.cls-2{fill:#fff;}.cls-3{fill:#a03b48;}.cls-4{fill:#717c89;}.cls-5{fill:#002a5c;}</style></defs><title>Calendar</title><g id="circles"><circle class="cls-1" cx="252.5" cy="252.5" r="180.5"/></g><g id="calendar"><rect class="cls-2" x="144" y="172.5" width="216" height="159" rx="3"/><rect class="cls-3" x="144" y="172" width="216" height="43" rx="3"/><rect class="cls-4" x="191" y="153" width="18" height="35" rx="3"/><rect class="cls-4" x="297" y="153" width="18" height="35" rx="3"/><path class="cls-1" d="M170,225h24a0,0,0,0,1,0,0v27a0,0,0,0,1,0,0H167a0,0,0,0,1,0,0V228A3,3,0,0,1,170,225Z"/><path class="cls-1" d="M206,225h24a0,0,0,0,1,0,0v27a0,0,0,0,1,0,0H203a0,0,0,0,1,0,0V228A3,3,0,0,1,206,225Z"/><path class="cls-1" d="M242,225h24a0,0,0,0,1,0,0v27a0,0,0,0,1,0,0H239a0,0,0,0,1,0,0V228A3,3,0,0,1,242,225Z"/><path class="cls-1" d="M278,225h24a0,0,0,0,1,0,0v27a0,0,0,0,1,0,0H275a0,0,0,0,1,0,0V228A3,3,0,0,1,278,225Z"/><path class="cls-1" d="M314,225h24a0,0,0,0,1,0,0v27a0,0,0,0,1,0,0H311a0,0,0,0,1,0,0V228A3,3,0,0,1,314,225Z"/><path class="cls-1" d="M170,258h24a0,0,0,0,1,0,0v27a0,0,0,0,1,0,0H167a0,0,0,0,1,0,0V261A3,3,0,0,1,170,258Z"/><path class="cls-1" d="M206,258h24a0,0,0,0,1,0,0v27a0,0,0,0,1,0,0H203a0,0,0,0,1,0,0V261A3,3,0,0,1,206,258Z"/><path class="cls-1" d="M242,258h24a0,0,0,0,1,0,0v27a0,0,0,0,1,0,0H239a0,0,0,0,1,0,0V261A3,3,0,0,1,242,258Z"/><path class="cls-3" d="M278,258h24a0,0,0,0,1,0,0v27a0,0,0,0,1,0,0H275a0,0,0,0,1,0,0V261A3,3,0,0,1,278,258Z"/><path class="cls-1" d="M314,258h24a0,0,0,0,1,0,0v27a0,0,0,0,1,0,0H311a0,0,0,0,1,0,0V261A3,3,0,0,1,314,258Z"/><path class="cls-1" d="M170,292h24a0,0,0,0,1,0,0v27a0,0,0,0,1,0,0H167a0,0,0,0,1,0,0V295A3,3,0,0,1,170,292Z"/><path class="cls-1" d="M206,292h24a0,0,0,0,1,0,0v27a0,0,0,0,1,0,0H203a0,0,0,0,1,0,0V295A3,3,0,0,1,206,292Z"/><path class="cls-1" d="M242,292h24a0,0,0,0,1,0,0v27a0,0,0,0,1,0,0H239a0,0,0,0,1,0,0V295A3,3,0,0,1,242,292Z"/><path class="cls-1" d="M278,292h24a0,0,0,0,1,0,0v27a0,0,0,0,1,0,0H275a0,0,0,0,1,0,0V295A3,3,0,0,1,278,292Z"/><path class="cls-1" d="M314,292h24a0,0,0,0,1,0,0v27a0,0,0,0,1,0,0H311a0,0,0,0,1,0,0V295A3,3,0,0,1,314,292Z"/><path class="cls-5" d="M35.63,161c13.25-13,26.25-26.5,37-37.75,25-26.25,36.25-47,36.25-66.5,0-20.5-12-33.5-30.25-33.5a65.16,65.16,0,0,0-25.5,5.5l14-9-6,22c-3.25,12-7.25,16.75-14.25,16.75-5.5,0-9.75-3-12.5-8,2.75-26.25,25-38.5,50-38.5,32,0,46,17.5,46,42.5,0,21.75-10.75,38.75-49,76.25-8,8-20,19.5-32.5,31.25l-3-5h91.75v20h-102Z"/></g></svg>