<svg xmlns="http://www.w3.org/2000/svg" viewBox="0 0 500 500"><defs><style>.cls-1,.cls-5,.cls-6,.cls-7{fill:none;}.cls-2{fill:#717c89;}.cls-3{fill:#002a5c;}.cls-4{fill:#fff;}.cls-5,.cls-6,.cls-7{stroke:#fff;stroke-miterlimit:10;opacity:0;}.cls-6{stroke-width:2px;}.cls-7{stroke-width:0.6px;}.cls-8{fill:#a03b48;}</style></defs><title>Confirmation</title><g id="Frames"><rect class="cls-1" x="37" y="32" width="427" height="440"/></g><g id="circles"><circle class="cls-2" cx="252.5" cy="252.5" r="180.5"/></g><g id="notification"><path class="cls-3" d="M134.13,168.25V177H41.88v-8.75l36-6h20Zm-38.75-155,3.5,2.5-1,35.75v72.75c0,17.5.25,35.25.75,52.75H77.13c.5-17.5.75-35.25.75-52.75V33.75L44.38,36.5v-10Z"/><path class="cls-4" d="M354.58,186H150.42a2.7,2.7,0,0,0-2.92,2.4V310.6a2.23,2.23,0,0,0,.85,1.7,3.43,3.43,0,0,0,2.07.7H191l6.37,23,37.09-23H354.58a2.7,2.7,0,0,0,2.92-2.4V188.4A2.7,2.7,0,0,0,354.58,186Z"/><line class="cls-5" x1="245.3" y1="203.5" x2="246.3" y2="206.5"/><line class="cls-5" x1="263.3" y1="206.5" x2="268.3" y2="203.5"/><line class="cls-6" x1="245.75" y1="204" x2="266" y2="204"/><line class="cls-7" x1="246" y1="205" x2="265" y2="205"/><circle class="cls-8" cx="252.5" cy="249" r="36.75"/><polygon class="cls-4" points="272.44 231.68 244.8 259.32 232.56 247.07 229.09 250.54 241.34 262.78 241.26 262.86 244.72 266.32 275.91 235.14 272.44 231.68"/></g></svg>