<svg xmlns="http://www.w3.org/2000/svg" viewBox="0 0 500 500"><defs><style>.cls-1,.cls-8{fill:none;}.cls-2{fill:#c0c1c1;}.cls-3,.cls-5,.cls-6{fill:#fff;}.cls-4{fill:#a03b48;}.cls-5,.cls-6{stroke:#a03b48;fill-rule:evenodd;}.cls-5,.cls-6,.cls-8,.cls-9{stroke-miterlimit:10;}.cls-5{stroke-width:5px;}.cls-6{stroke-width:10px;}.cls-7{fill:#002a5c;}.cls-8,.cls-9{stroke:#fff;stroke-width:1.5px;opacity:0;}.cls-9{fill:#8c2332;}</style></defs><title>Notification</title><g id="Frames"><rect class="cls-1" x="45" y="30" width="427" height="440"/></g><g id="circles"><circle class="cls-2" cx="252.5" cy="252.5" r="180.5"/></g><g id="mail"><path class="cls-3" d="M160.31,327.11a.16.16,0,0,1-.16-.16L160,195.77a.17.17,0,0,1,.16-.16l192.53-.22a.16.16,0,0,1,.16.16L353,326.73a.16.16,0,0,1-.16.16l-192.53.22Z"/><path class="cls-4" d="M350.35,197.89l.15,126.5-187.85.22-.15-126.5,187.85-.22m2.34-5h0l-192.52.22a2.66,2.66,0,0,0-2.66,2.66L157.65,327a2.66,2.66,0,0,0,2.66,2.66h0l192.53-.22a2.67,2.67,0,0,0,2.66-2.67l-.15-131.17a2.67,2.67,0,0,0-2.66-2.66Z"/><path class="cls-5" d="M255.62,258.09l-93.28,70.18a1.79,1.79,0,0,0,1.08,3.23l186.74-.22a1.79,1.79,0,0,0,1.07-3.23l-93.45-70A1.8,1.8,0,0,0,255.62,258.09Z"/><path class="cls-6" d="M254.81,268.31l-92-69.1a1.79,1.79,0,0,1,1.08-3.21H347.84a1.78,1.78,0,0,1,1.07,3.21l-92,69.1A1.77,1.77,0,0,1,254.81,268.31Z"/><path class="cls-7" d="M82.63,89.5c22.75,0,36.25-12.25,36.25-33.5,0-18.25-11.25-28.75-31-28.75a71.18,71.18,0,0,0-21.25,3.5l10.75-7L72.63,41c-3,10.75-5.75,16-14.5,16-5.5,0-10.25-2.25-12.5-9.25C50.38,26.5,69.13,16,91.88,16c28.75,0,47.5,16,47.5,39.25,0,21-16,37.5-42.25,43.25V94.25c32,2.75,47.5,19,47.5,42,0,27.25-22.25,48-55.75,48-24,0-43-10.25-47.5-35.25,3-5.5,7-8,12.5-8,8.25,0,11,5.5,14.5,17.75l5.25,19-10-9A60.35,60.35,0,0,0,86.13,173c24.75,0,37.25-13.5,37.25-36,0-21.75-12.75-35-38.5-35H72.63V89.5Z"/><polygon class="cls-7" points="283.25 200.12 252.47 220 246.67 200.69 283.25 200.12"/><path class="cls-7" d="M333.05,207.09H231.45a1.63,1.63,0,0,1-1-.36,1.06,1.06,0,0,1-.43-.84V144.66a1.34,1.34,0,0,1,1.45-1.2h101.6a1.34,1.34,0,0,1,1.45,1.2v61.23A1.35,1.35,0,0,1,333.05,207.09Z"/><rect class="cls-3" x="279.54" y="160.08" width="4.69" height="24.41" rx="0.81"/><ellipse class="cls-3" cx="282.26" cy="189.21" rx="2.73" ry="2.69"/><line class="cls-8" x1="249.2" y1="206.5" x2="273.5" y2="206.5"/><line class="cls-8" x1="250.05" y1="207.5" x2="249.05" y2="204.5"/><line class="cls-9" x1="274.16" y1="204.59" x2="268.04" y2="208.41"/></g></svg>