<svg xmlns="http://www.w3.org/2000/svg" viewBox="0 0 500 500"><defs><style>.cls-1{fill:#002a5c;}</style></defs><title>TES website icon</title><g id="notification"><path class="cls-1" d="M451.75,150.31,231.5,370.56c-.19.18-.39.35-.59.51l-4.4,4.4a5.37,5.37,0,0,1-7.6,0L97,253.58A5.38,5.38,0,0,1,97,246l39-39a5.38,5.38,0,0,1,7.61,0l79.16,79.16L412.55,96.36a6.76,6.76,0,0,1,1-.84A224.36,224.36,0,0,0,250,25C125.74,25,25,125.74,25,250S125.74,475,250,475,475,374.26,475,250A224.15,224.15,0,0,0,451.75,150.31Z"/></g></svg>